<?xml version="1.0" encoding="iso-8859-1"?>
<!-- Generator: Adobe Illustrator 24.2.1, SVG Export Plug-In . SVG Version: 6.00 Build 0)  -->
<svg version="1.1" id="Layer_1" xmlns="http://www.w3.org/2000/svg" xmlns:xlink="http://www.w3.org/1999/xlink" x="0px" y="0px"
	 viewBox="0 0 64 64" style="enable-background:new 0 0 64 64;" xml:space="preserve">
<path style="fill:none;stroke:#000000;stroke-width:2;stroke-linecap:round;stroke-linejoin:round;stroke-miterlimit:10;" d="
	M47.626,5.808l-0.131-0.04c-0.876-0.27-1.623,0.684-1.152,1.47L48,10l-1.851,1.234c-0.561,0.374-0.598,1.186-0.073,1.61
	c0.276,0.223,0.528,0.435,0.646,0.555c4.098,4.173,2.762,11.459-1.725,15.696c0,0-6.331-2.095-12.996-2.095c-6.844,0-13,2-13,2
	c-4.486-4.237-5.819-11.44-1.723-15.602c0.118-0.12,0.37-0.332,0.646-0.555c0.525-0.424,0.488-1.236-0.073-1.61L16,10l1.657-2.762
	c0.472-0.786-0.275-1.74-1.152-1.47l-0.131,0.04C10.208,7.705,6,13.403,6,19.854v0.711C6,25.755,9.6,32.25,14,35l0,0v13
	c0,7.18,5.82,13,13,13h10c7.18,0,13-5.82,13-13V35l0,0c4.4-2.75,8-9.245,8-14.434v-0.711C58,13.403,53.792,7.705,47.626,5.808z"/>
<line style="fill:none;stroke:#000000;stroke-width:2;stroke-linecap:round;stroke-miterlimit:10;" x1="41.948" y1="22.688" x2="42.258" y2="20.712"/>
<line style="fill:none;stroke:#000000;stroke-width:2;stroke-linecap:round;stroke-miterlimit:10;" x1="36.989" y1="22.144" x2="37.122" y2="20.149"/>
<line style="fill:none;stroke:#000000;stroke-width:2;stroke-linecap:round;stroke-miterlimit:10;" x1="31.988" y1="22.004" x2="31.971" y2="20.004"/>
<line style="fill:none;stroke:#000000;stroke-width:2;stroke-linecap:round;stroke-miterlimit:10;" x1="26.993" y1="22.234" x2="26.821" y2="20.242"/>
<line style="fill:none;stroke:#000000;stroke-width:2;stroke-linecap:round;stroke-miterlimit:10;" x1="22.053" y1="22.886" x2="21.694" y2="20.918"/>
<ellipse cx="23" cy="47" rx="5" ry="6"/>
<ellipse cx="41" cy="47" rx="5" ry="6"/>
</svg>